HIERARCHY
ROOT hip
{
	OFFSET 0.000000 0.000000 0.000000 
	CHANNELS 6 Xposition Yposition Zposition Xrotation Zrotation Yrotation
	JOINT abdomen
	{
		OFFSET 0.000000 3.402643 0.000000 
		CHANNELS 3 Xrotation Zrotation Yrotation
		JOINT chest
		{
			OFFSET 0.000000 8.438565 -0.680529 
			CHANNELS 3 Xrotation Zrotation Yrotation
			JOINT neck
			{
				OFFSET 0.000000 10.207942 -0.272212 
				CHANNELS 3 Xrotation Zrotation Yrotation
				JOINT head
				{
					OFFSET 0.000000 3.130431 0.000000 
					CHANNELS 3 Xrotation Zrotation Yrotation
					End Site
					{
						OFFSET 0.000000 3.130435 0.000000 
					}
				}
			}
			JOINT lCollar
			{
				OFFSET 3.470700 6.669187 -0.816635 
				CHANNELS 3 Yrotation Zrotation Xrotation
				JOINT lShldr
				{
					OFFSET 3.198488 0.000000 0.000000 
					CHANNELS 3 Zrotation Yrotation Xrotation
					JOINT lForeArm
					{
						OFFSET 10.139888 0.000000 0.000000 
						CHANNELS 3 Yrotation Zrotation Xrotation
						JOINT lHand
						{
							OFFSET 8.370511 0.000000 0.000000 
							CHANNELS 3 Zrotation Yrotation Xrotation
							End Site
							{
								OFFSET 4.083176 0.000000 0.000000 
							}
						}
					}
				}
			}
			JOINT rCollar
			{
				OFFSET -3.470700 6.669187 -0.816635 
				CHANNELS 3 Yrotation Zrotation Xrotation
				JOINT rShldr
				{
					OFFSET -3.198488 0.000000 0.000000 
					CHANNELS 3 Zrotation Yrotation Xrotation
					JOINT rForeArm
					{
						OFFSET -10.139888 0.000000 0.000000 
						CHANNELS 3 Yrotation Zrotation Xrotation
						JOINT rHand
						{
							OFFSET -8.370511 0.000000 0.000000 
							CHANNELS 3 Zrotation Yrotation Xrotation
							End Site
							{
								OFFSET -4.083176 0.000000 0.000000 
							}
						}
					}
				}
			}
		}
	}
	JOINT lThigh
	{
		OFFSET 5.308129 -1.633274 1.361059 
		CHANNELS 3 Xrotation Zrotation Yrotation
		JOINT lShin
		{
			OFFSET -2.041588 -20.007561 0.000000 
			CHANNELS 3 Xrotation Zrotation Yrotation
			JOINT lFoot
			{
				OFFSET 0.000000 -19.190928 -1.224953 
				CHANNELS 3 Xrotation Yrotation Zrotation
				End Site
				{
					OFFSET 0.000000 -2.449906 4.627600 
				}
			}
		}
	}
	JOINT rThigh
	{
		OFFSET -5.308129 -1.633274 1.361059 
		CHANNELS 3 Xrotation Zrotation Yrotation
		JOINT rShin
		{
			OFFSET 2.041588 -20.007561 0.000000 
			CHANNELS 3 Xrotation Zrotation Yrotation
			JOINT rFoot
			{
				OFFSET 0.000000 -19.190928 -1.224953 
				CHANNELS 3 Xrotation Yrotation Zrotation
				End Site
				{
					OFFSET 0.000000 -2.449906 4.627600 
				}
			}
		}
	}
}
MOTION
Frames: 11
Frame Time: 0.033333
265.867004 52.677471 1.352360 0.638717 6.376561 86.604790 0.000000 0.000000 0.000000 -5.585544 3.314302 -2.383947 8.829593 -1.425728 -7.766343 26.185604 -8.906970 -2.633904 10.873117 15.435476 -4.651555 -86.344604 -5.791502 81.427322 -27.933870 -8.998487 -10.284675 -2.021819 -4.420119 -0.993375 -10.255459 -16.303356 -3.499375 82.192703 -6.060594 51.975380 14.967407 10.125720 2.997606 5.011733 5.243321 -0.848387 7.238669 -0.320719 11.691048 16.114471 -2.637166 -7.270001 -13.062734 0.178701 0.387030 -15.356731 -10.423865 -17.515373 35.651817 1.103206 -4.881657 -0.014448 5.817240 -7.232108 
266.881134 52.653988 1.327763 0.677756 6.171446 86.499268 0.000000 0.000000 0.000000 -5.456450 2.945600 -2.771106 8.622166 -0.842215 -7.648366 25.972528 -9.001319 -2.665607 10.434186 16.093403 -4.535949 -86.756920 -7.159682 82.515335 -28.971609 -8.557300 -10.804565 -1.826113 -4.363259 -1.016203 -10.598965 -15.872809 -3.505333 81.852699 -6.650024 52.400993 15.337982 10.244435 2.604051 4.834249 5.199985 -0.866076 8.630220 -0.555628 11.779085 15.310518 -2.627421 -7.064073 -13.308104 0.198927 0.212485 -12.808578 -9.027271 -20.976452 23.975700 1.633916 -1.437576 2.110222 5.725942 -5.295928 
268.158722 52.614765 1.325875 0.736346 5.917484 86.336288 0.000000 0.000000 0.000000 -5.601727 2.653302 -2.925881 8.583320 -0.376265 -7.625444 25.920237 -9.144026 -2.710806 9.988317 16.594374 -4.519414 -87.060791 -8.325475 83.920708 -29.919897 -8.114188 -11.258224 -2.021819 -4.420119 -0.993375 -10.862865 -15.549957 -3.591511 81.458473 -7.588674 52.594028 15.601762 10.447791 2.029474 5.448879 5.365125 -0.814035 9.868809 -0.750606 11.760098 14.852561 -2.588304 -6.700900 -13.622156 0.251697 -0.262393 -8.727534 -6.585774 -24.369883 8.796899 1.991590 2.266164 7.440305 5.484961 -0.793749 
269.032898 52.584038 1.358260 0.991771 6.004966 86.256561 0.000000 0.000000 0.000000 -5.276640 1.993476 -2.947632 8.330902 0.240742 -7.614197 26.059145 -9.342676 -2.766856 9.633894 17.086428 -3.780541 -87.166252 -10.446915 85.589272 -30.963987 -7.597449 -11.787141 -2.537981 -4.560002 -0.955845 -11.201494 -14.956625 -2.987216 81.001488 -7.630857 53.415195 16.130304 10.586328 1.411852 5.665433 5.420531 -0.789781 11.495397 -1.071827 11.429355 14.264596 -2.558877 -6.321566 -13.530363 0.342427 -1.166677 -5.652990 -4.762422 -24.661985 -3.529439 2.017680 3.852400 12.610784 4.894582 6.310672 
270.408844 52.498852 1.428756 1.090024 6.034072 86.101318 0.000000 0.000000 0.000000 -5.373257 1.623697 -3.023732 8.398294 0.608083 -7.492180 26.069868 -9.547620 -2.832067 9.351044 17.666698 -4.220503 -87.500099 -10.854975 86.882690 -31.787676 -7.224417 -12.226061 -2.411360 -4.523089 -0.968180 -11.432627 -14.782624 -3.518762 80.764793 -8.991760 53.959347 16.421766 10.737428 0.898232 6.195065 5.560936 -0.734121 12.606000 -1.063715 10.833067 14.766249 -2.529588 -5.978629 -13.847723 0.467220 -2.185378 -7.204555 -4.975540 -25.067022 -3.617891 2.055987 5.888454 8.168649 4.209038 10.725660 
271.599121 52.401577 1.532228 1.257542 6.277796 86.104576 0.000000 0.000000 0.000000 -5.108299 1.060226 -3.102568 8.241954 1.091057 -7.370503 26.050148 -9.735478 -2.886573 9.023417 18.237043 -4.120167 -87.802017 -11.686320 87.350060 -32.235451 -6.865483 -12.009161 -2.791672 -4.623744 -0.940255 -11.782174 -14.445012 -3.591346 80.523598 -9.574557 54.550385 16.744513 10.912589 0.359206 6.026755 5.519954 -0.753942 13.836411 -1.034511 10.111767 15.487630 -2.490729 -5.598270 -13.960963 0.603554 -3.439369 -7.616021 -4.548589 -27.440947 -3.696840 2.124608 7.855085 -0.037035 3.833633 11.207214 
273.065582 52.292885 1.666150 1.297334 6.472964 86.035118 0.000000 0.000000 0.000000 -5.088283 0.710082 -3.217517 8.190557 1.468294 -7.129216 26.059782 -9.912485 -2.943082 8.662375 18.611032 -4.083359 -87.860329 -12.247060 88.247910 -33.032047 -6.505134 -12.389759 -2.489634 -4.545926 -0.959142 -11.980426 -14.193936 -3.656929 80.221802 -10.124088 55.299435 17.055861 11.067236 -0.184926 6.339826 5.604948 -0.721620 14.880213 -0.789979 9.219423 16.535572 -2.451968 -5.169595 -13.951802 0.762038 -5.042560 -7.577937 -3.954873 -30.352606 -3.726935 2.145592 8.722342 -5.451377 3.288498 13.860906 
274.375763 52.185467 1.818956 1.248609 6.639062 85.730476 0.000000 0.000000 0.000000 -5.342133 0.641732 -3.351018 8.311891 1.613393 -6.781030 26.043577 -9.978758 -2.959902 8.465056 18.854769 -4.549038 -87.900291 -11.964767 89.443413 -33.927994 -6.196944 -13.258256 -2.166873 -4.462207 -0.984541 -11.985290 -14.201270 -4.099556 80.049675 -10.935266 55.487556 16.870771 11.135369 -0.170778 6.445523 5.637086 -0.714272 16.132639 -0.505458 8.610403 17.315142 -2.375729 -4.592754 -13.735767 0.930391 -6.812265 -6.999868 -3.189510 -31.248194 -3.696330 2.114556 7.493945 -7.826044 3.014023 15.614266 
275.306702 52.095013 1.983411 1.220239 7.078489 85.394592 0.000000 0.000000 0.000000 -5.224798 0.486253 -3.462432 8.226227 1.830022 -6.290882 26.127979 -10.067626 -2.984561 8.353605 19.087616 -4.700645 -87.977249 -11.914958 90.262596 -34.536263 -5.919953 -13.759500 -2.275524 -4.483567 -0.978424 -12.081397 -14.142944 -4.277246 79.974777 -11.141587 55.682602 16.639019 10.995015 0.291240 6.132452 5.552026 -0.747716 17.635489 -0.351255 7.781034 18.023172 -2.296410 -4.058887 -12.921439 1.037056 -8.315763 -5.564314 -2.525170 -29.683115 -3.640137 2.068571 5.798720 -8.706511 3.235250 13.507367 
277.002350 51.988468 2.184611 0.916018 7.489288 85.119659 0.000000 0.000000 0.000000 -5.537416 0.602643 -3.574046 8.437489 2.074897 -5.960799 26.214592 -10.193626 -3.021124 8.053659 19.367163 -5.206597 -88.031204 -10.984349 91.097824 -35.097233 -5.653411 -14.220675 -2.432076 -4.529204 -0.960422 -12.109304 -14.108256 -4.778795 79.877541 -11.993188 55.645248 16.375153 10.824990 0.745754 6.463902 5.642633 -0.717331 18.689875 0.107684 6.550904 19.621420 -2.150316 -3.274050 -11.854701 1.189468 -10.022425 -4.129669 -1.765559 -28.534611 -3.627452 2.065576 5.965623 -6.684096 3.753736 9.755061 
278.544495 51.923306 2.428682 0.463350 7.870839 84.966537 0.000000 0.000000 0.000000 -6.026079 0.864339 -3.743574 8.669195 2.243062 -5.696020 26.452738 -10.357569 -3.069715 7.853919 19.633537 -5.747121 -88.173012 -9.865360 91.992798 -35.380733 -5.467639 -14.278724 -2.712943 -4.611042 -0.940090 -12.219387 -14.051389 -5.267385 79.776154 -12.832367 54.757915 15.905045 10.671821 1.338457 6.358207 5.610493 -0.723726 19.605022 0.791719 5.510043 21.323040 -2.023720 -2.728343 -10.321352 1.273876 -11.641810 -3.024485 -0.434447 -30.354719 -3.709081 2.137222 8.489242 -2.036714 4.617104 3.706501 
